<mxfile host="www.draw.io" modified="2019-12-29T09:39:11.275Z" agent="Mozilla/5.0 (X11; Linux x86_64) AppleWebKit/537.36 (KHTML, like Gecko) Chrome/79.0.3945.88 Safari/537.36" etag="UH7PX4UUBEDeimX9_dBY" version="12.4.7" type="github">
  <diagram id="OQejn_Y14eyWkAoDzk5G" name="第 1 页">
    <mxGraphModel dx="809" dy="399" grid="1" gridSize="10" guides="1" tooltips="1" connect="1" arrows="1" fold="1" page="1" pageScale="1" pageWidth="1600" pageHeight="900" math="0" shadow="0">
      <root>
        <mxCell id="0"/>
        <mxCell id="1" parent="0"/>
        <mxCell id="5sG0NAVAFXr0Sf_U8vXh-6" value="数据服务层(数据资产管理)&lt;br&gt;&lt;br&gt;&lt;br&gt;&lt;br&gt;&lt;br&gt;&lt;br&gt;&lt;br&gt;" style="rounded=0;whiteSpace=wrap;html=1;align=center;strokeColor=none;fillColor=#3399FF;gradientColor=#1C538A;opacity=90;shadow=0;comic=0;glass=1;" parent="1" vertex="1">
          <mxGeometry x="190" y="30" width="300" height="130" as="geometry"/>
        </mxCell>
        <mxCell id="5sG0NAVAFXr0Sf_U8vXh-1" value="元数据管理" style="rounded=0;whiteSpace=wrap;html=1;fillColor=#CCFFE6;gradientColor=#00CCCC;strokeColor=none;shadow=1;opacity=80;" parent="1" vertex="1">
          <mxGeometry x="190" y="220" width="300" height="60" as="geometry"/>
        </mxCell>
        <mxCell id="5sG0NAVAFXr0Sf_U8vXh-2" value="数&lt;br&gt;据&lt;br&gt;质&lt;br&gt;量&lt;br&gt;管&lt;br&gt;理" style="rounded=0;whiteSpace=wrap;html=1;gradientColor=#FF9933;fillColor=#FFE6CC;gradientDirection=west;strokeColor=none;shadow=0;glass=0;opacity=90;" parent="1" vertex="1">
          <mxGeometry x="140" y="30" width="50" height="250" as="geometry"/>
        </mxCell>
        <mxCell id="5sG0NAVAFXr0Sf_U8vXh-3" value="数&lt;br&gt;据&lt;br&gt;标&lt;br&gt;准&lt;br&gt;管&lt;br&gt;理" style="rounded=0;whiteSpace=wrap;html=1;shadow=0;strokeColor=none;fillColor=#FFE6CC;gradientColor=#FF9933;gradientDirection=east;glass=0;fontColor=#000000;opacity=90;" parent="1" vertex="1">
          <mxGeometry x="490" y="30" width="50" height="250" as="geometry"/>
        </mxCell>
        <mxCell id="5sG0NAVAFXr0Sf_U8vXh-4" value="数据安全管理" style="rounded=0;whiteSpace=wrap;html=1;fillColor=#FFE6CC;strokeColor=none;gradientColor=#FF9933;comic=0;shadow=0;gradientDirection=south;glass=0;opacity=90;" parent="1" vertex="1">
          <mxGeometry x="140" y="280" width="400" height="40" as="geometry"/>
        </mxCell>
        <mxCell id="5sG0NAVAFXr0Sf_U8vXh-5" value="主数据管理" style="rounded=0;whiteSpace=wrap;html=1;fillColor=#CCE5FF;gradientColor=#007FFF;strokeColor=none;opacity=80;" parent="1" vertex="1">
          <mxGeometry x="190" y="160" width="300" height="60" as="geometry"/>
        </mxCell>
        <mxCell id="5sG0NAVAFXr0Sf_U8vXh-9" value="资产管理" style="rounded=0;whiteSpace=wrap;html=1;opacity=40;" parent="1" vertex="1">
          <mxGeometry x="190" y="70" width="75" height="30" as="geometry"/>
        </mxCell>
        <mxCell id="5sG0NAVAFXr0Sf_U8vXh-10" value="血缘追溯" style="rounded=0;whiteSpace=wrap;html=1;opacity=40;" parent="1" vertex="1">
          <mxGeometry x="265" y="70" width="75" height="30" as="geometry"/>
        </mxCell>
        <mxCell id="5sG0NAVAFXr0Sf_U8vXh-11" value="质量监控" style="rounded=0;whiteSpace=wrap;html=1;opacity=40;" parent="1" vertex="1">
          <mxGeometry x="340" y="70" width="75" height="30" as="geometry"/>
        </mxCell>
        <mxCell id="5sG0NAVAFXr0Sf_U8vXh-12" value="编排引擎" style="rounded=0;whiteSpace=wrap;html=1;opacity=40;" parent="1" vertex="1">
          <mxGeometry x="190" y="130" width="150" height="30" as="geometry"/>
        </mxCell>
        <mxCell id="5sG0NAVAFXr0Sf_U8vXh-13" value="任务调度" style="rounded=0;whiteSpace=wrap;html=1;opacity=40;" parent="1" vertex="1">
          <mxGeometry x="340" y="130" width="150" height="30" as="geometry"/>
        </mxCell>
        <mxCell id="5sG0NAVAFXr0Sf_U8vXh-14" value="报表输出" style="rounded=0;whiteSpace=wrap;html=1;opacity=40;" parent="1" vertex="1">
          <mxGeometry x="415" y="70" width="75" height="30" as="geometry"/>
        </mxCell>
        <mxCell id="51XwVEyQgdlHVBABlyBS-1" value="数据开发工具套件" style="rounded=0;whiteSpace=wrap;html=1;opacity=40;" vertex="1" parent="1">
          <mxGeometry x="190" y="100" width="300" height="30" as="geometry"/>
        </mxCell>
      </root>
    </mxGraphModel>
  </diagram>
</mxfile>
